#!OML:ASF F:\VICON\USERDATA\INSTALL\rory3\rory3.ASF
:FULLY-SPECIFIED
:DEGREES
1053
root -2.45266 16.8349 3.27446 31.3889 -2.48401 358.28
lowerback -10.9343 -2.77037 10.9261
upperback -13.37 -4.28063 2.04789
thorax -9.06639 -3.10522 -3.92871
lowerneck -9.35417 -11.685 -10.3253
upperneck 19.5821 -15.843 6.24656
head 9.00143 -7.69309 1.93217
rclavicle -7.67806e-015 2.5842e-014
rhumerus -30.2053 -17.8116 -69.895
rradius 11.8349
rwrist 13.5571
rhand -7.46021 17.8928
rfingers 7.12502
rthumb 18.4282 -11.2543
lclavicle -7.67806e-015 2.5842e-014
lhumerus -33.0461 5.43698 78.7225
lradius 43.8525
lwrist 6.31037
lhand -7.59452 18.5757
lfingers 7.12502
lthumb 18.299 47.735
rfemur -41.317 6.4306 28.9603
rtibia 30.0846
rfoot -40.4351 -38.1355
rtoes 25.229
lfemur -21.1436 23.9773 -22.6443
ltibia 48.7607
lfoot -5.27162 35.4219
ltoes 39.692
1054
root -2.45811 16.835 3.30825 31.1274 -2.25584 358.256
lowerback -10.7289 -2.81672 11.0419
upperback -13.4154 -4.31687 2.04487
thorax -9.25817 -3.14234 -3.9761
lowerneck -9.12487 -11.5882 -10.3842
upperneck 19.6969 -15.7206 6.19753
head 8.98951 -7.65153 1.9538
rclavicle 8.58874e-014 1.78906e-014
rhumerus -31.1105 -21.484 -67.3539
rradius 10.9427
rwrist 17.2363
rhand -7.86524 17.9161
rfingers 7.12502
rthumb 18.0385 -11.2675
lclavicle 8.58874e-014 1.78906e-014
lhumerus -33.6609 5.93103 78.1475
lradius 43.814
lwrist 6.95445
lhand -8.30087 17.5052
lfingers 7.12502
lthumb 17.6193 46.7268
rfemur -41.0061 5.40337 29.5314
rtibia 30.1864
rfoot -38.8401 -38.419
rtoes 23.0119
lfemur -22.2121 24.3228 -22.5574
ltibia 50.3224
lfoot -0.398895 34.019
ltoes 34.0142
1055
root -2.47633 16.8168 3.33175 31.0767 -2.32095 358.399
lowerback -10.5227 -2.86834 10.6833
upperback -13.6578 -4.32852 2.04909
thorax -9.61664 -3.13757 -3.74589
lowerneck -8.68776 -11.4663 -10.6268
upperneck 19.8459 -15.589 6.28137
head 8.97832 -7.61307 2.05794
rclavicle 6.53505e-015 1.35174e-014
rhumerus -32.4318 -23.9555 -65.0597
rradius 10.4334
rwrist 19.7313
rhand -8.06802 17.7226
rfingers 7.12502
rthumb 17.8434 -11.4788
lclavicle 6.53505e-015 1.35174e-014
lhumerus -34.4949 6.22385 77.6151
lradius 43.6026
lwrist 7.53633
lhand -9.79471 15.4553
lfingers 7.12502
lthumb 16.1813 44.7999
rfemur -40.6607 5.83539 29.2053
rtibia 30.3034
rfoot -42.2545 -35.5543
rtoes 29.1349
lfemur -23.6403 24.6985 -22.847
ltibia 51.9399
lfoot 2.6483 32.3217
ltoes 28.8459
1056
root -2.49233 16.8167 3.37561 30.7919 -2.41151 358.151
lowerback -10.2983 -2.77814 10.7262
upperback -13.7099 -4.1728 2.09672
thorax -9.78257 -3.06752 -3.69941
lowerneck -7.96516 -11.4415 -10.8487
upperneck 19.5654 -15.5917 6.37083
head 8.77902 -7.64701 2.16738
rclavicle 6.60462e-014 2.90226e-014
rhumerus -33.1339 -24.1303 -64.2228
rradius 9.95407
rwrist 19.5061
rhand -8.43787 17.6106
rfingers 7.12502
rthumb 17.4875 -11.6228
lclavicle 6.60462e-014 2.90226e-014
lhumerus -35.1426 6.47947 77.2334
lradius 43.2417
lwrist 7.76193
lhand -10.2136 15.094
lfingers 7.12502
lthumb 15.7779 44.471
rfemur -40.5702 5.26004 29.8967
rtibia 30.4607
rfoot -37.6299 -39.2136
rtoes 20.402
lfemur -24.6265 25.1178 -22.6328
ltibia 53.4983
lfoot 3.65847 30.5069
ltoes 25.475
1057
root -2.51398 16.8018 3.40871 30.9057 -2.49788 357.955
lowerback -10.5893 -2.6424 10.7221
upperback -13.632 -4.03284 2.08075
thorax -9.5022 -2.98486 -3.74186
lowerneck -7.96568 -11.5342 -10.698
upperneck 19.3974 -15.7135 6.30031
head 8.71388 -7.70077 2.10936
rclavicle 3.57688e-014 1.19271e-015
rhumerus -32.8148 -24.8438 -64.0481
rradius 8.58875
rwrist 19.3727
rhand -9.44927 17.3932
rfingers 7.12502
rthumb 16.5139 -11.924
lclavicle 3.57688e-014 1.19271e-015
lhumerus -35.359 6.89264 76.7466
lradius 42.9041
lwrist 7.7731
lhand -9.77838 15.6668
lfingers 7.12502
lthumb 16.1971 45.0101
rfemur -40.6079 5.26016 30.2188
rtibia 30.6078
rfoot -37.6534 -39.0794
rtoes 20.2672
lfemur -26.2566 25.4112 -22.6544
ltibia 55.1648
lfoot 4.25951 28.7412
ltoes 21.6782
1058
root -2.53235 16.7822 3.43138 30.87 -2.45787 357.794
lowerback -10.6596 -2.60204 10.7811
upperback -13.4369 -4.00376 2.03401
thorax -9.2382 -2.96013 -3.84282
lowerneck -8.65742 -11.6042 -10.2432
upperneck 19.6206 -15.7741 6.0464
head 8.85822 -7.69708 1.90724
rclavicle -4.99384e-014 1.51076e-014
rhumerus -32.0576 -25.694 -64.2292
rradius 6.87435
rwrist 19.3275
rhand -10.7199 17.2551
rfingers 7.12502
rthumb 15.2904 -12.1597
lclavicle -4.99384e-014 1.51076e-014
lhumerus -35.5378 7.47185 76.1148
lradius 42.8602
lwrist 7.86566
lhand -9.13572 16.37
lfingers 7.12502
lthumb 16.8158 45.6618
rfemur -40.2948 5.47293 30.4
rtibia 30.7145
rfoot -40.1747 -36.9876
rtoes 24.7465
lfemur -27.8685 25.5305 -22.6161
ltibia 56.8272
lfoot 4.65211 26.8121
ltoes 15.3075
1059
root -2.54506 16.7831 3.45501 30.5669 -2.32282 357.812
lowerback -10.4083 -2.65813 10.74
upperback -13.2314 -4.05863 1.95918
thorax -9.14909 -2.97455 -3.89832
lowerneck -9.11105 -11.6291 -9.89405
upperneck 19.7117 -15.7897 5.87407
head 8.92676 -7.68094 1.77003
rclavicle -5.00503e-014 -7.95139e-016
rhumerus -31.9595 -26.2825 -64.0068
rradius 6.16355
rwrist 19.2627
rhand -11.2463 16.8421
rfingers 7.12502
rthumb 14.7832 -12.6107
lclavicle -5.00503e-014 -7.95139e-016
lhumerus -35.8052 8.11833 75.5105
lradius 42.7309
lwrist 7.91534
lhand -8.71861 16.7308
lfingers 7.12502
lthumb 17.2173 45.988
rfemur -40.1786 4.78168 30.8097
rtibia 30.8881
rfoot -37.0067 -39.1754
rtoes 18.9789
lfemur -29.1089 25.3585 -22.5847
ltibia 58.3002
lfoot 3.93197 25.2128
ltoes 10.1436
